<svg width="276" height="210" viewBox="0 0 276 210" fill="none" xmlns="http://www.w3.org/2000/svg">
<path fill-rule="evenodd" clip-rule="evenodd" d="M139.425 143.606C139.425 138.868 143.266 135.027 148.004 135.027H197.778C204.579 135.027 211.08 137.04 216.086 140.719C221.089 144.397 225.061 150.181 225.061 157.359C225.061 164.537 221.09 170.321 216.089 174.001C211.084 177.684 204.582 179.7 197.778 179.7H79.5085C74.7705 179.7 70.9297 175.859 70.9297 171.121C70.9297 166.383 74.7705 162.542 79.5085 162.542H197.778C201.307 162.542 204.157 161.479 205.921 160.181C207.688 158.881 207.903 157.785 207.903 157.359C207.903 156.935 207.689 155.842 205.923 154.544C204.16 153.248 201.309 152.185 197.778 152.185L147.502 150.5C142.765 150.5 139.425 148.344 139.425 143.606Z" fill="#CEB7F8"/>
<path fill-rule="evenodd" clip-rule="evenodd" d="M217.5 41.154C218.629 36.9346 222.452 34 226.82 34H265.841C271.169 34 275.488 38.3193 275.488 43.6474C275.488 48.9756 271.169 53.2949 265.841 53.2949H234.226L222.969 95.3666C221.592 100.514 216.303 103.57 211.156 102.193C206.009 100.816 202.953 95.5268 204.33 90.3797L217.5 41.154Z" fill="#CEB7F8"/>
<path d="M108.08 209.364C119.622 209.364 128.98 200.007 128.98 188.464C128.98 176.922 119.622 167.564 108.08 167.564C96.5369 167.564 87.1797 176.922 87.1797 188.464C87.1797 200.007 96.5369 209.364 108.08 209.364Z" fill="#A172FF"/>
<path d="M211.799 59.8711H67.772C56.9756 59.8711 49.0008 69.0286 51.4423 78.6084L63.1763 134.956C64.9419 141.874 71.7087 146.783 79.506 146.783L206.5 155L228.163 78.6338C233.5 63.0003 222.621 59.8711 211.799 59.8711Z" fill="#ECECEC"/>
<path d="M107.5 199C113.299 199 118 194.299 118 188.5C118 182.701 113.299 178 107.5 178C101.701 178 97 182.701 97 188.5C97 194.299 101.701 199 107.5 199Z" fill="#E3E3E3"/>
<mask id="mask0_6180_237" style="mask-type:alpha" maskUnits="userSpaceOnUse" x="51" y="59" width="178" height="96">
<path d="M211.799 59.8711H67.772C56.9756 59.8711 49.0008 69.0286 51.4423 78.6084L63.1763 134.956C64.9419 141.874 71.7087 146.783 79.506 146.783L206.5 155L228.163 78.6338C230.604 69.0286 222.621 59.8711 211.799 59.8711Z" fill="url(#paint0_linear_6180_237)"/>
</mask>
<g mask="url(#mask0_6180_237)">
<rect width="11.9998" height="55.7063" rx="5.9999" transform="matrix(0.999966 0.00825468 -0.0123002 0.999924 150.875 103.145)" fill="url(#paint1_linear_6180_237)"/>
<rect width="11.9998" height="55.7063" rx="5.9999" transform="matrix(0.999966 0.00825468 -0.0123002 0.999924 184.789 103.289)" fill="url(#paint2_linear_6180_237)"/>
<rect width="11.9998" height="55.7063" rx="5.9999" transform="matrix(0.999966 0.00825468 -0.0123002 0.999924 116.961 103)" fill="url(#paint3_linear_6180_237)"/>
<rect width="11.9998" height="55.7063" rx="5.9999" transform="matrix(0.999966 0.00825468 -0.0123002 0.999924 82.6875 103)" fill="url(#paint4_linear_6180_237)"/>
</g>
<path fill-rule="evenodd" clip-rule="evenodd" d="M183.353 4.08425C181.892 1.52303 179.18 0.318227 177.296 1.39324C175.411 2.46826 175.068 5.41601 176.529 7.97723C176.571 8.04969 176.613 8.12107 176.656 8.19133C175.698 8.38789 174.798 9.3245 174.445 10.6148C173.991 12.2754 174.615 13.893 175.839 14.2278C177.063 14.5626 178.424 13.4878 178.878 11.8272C179.002 11.3722 179.046 10.9206 179.018 10.4976C180.225 11.158 181.535 11.2684 182.587 10.6683C183.513 10.1399 184.067 9.15926 184.217 7.99445C184.47 8.12554 184.745 8.23408 185.038 8.31433C186.699 8.76852 188.316 8.14439 188.651 6.9203C188.986 5.69621 187.911 4.3357 186.25 3.88151C185.181 3.58911 184.13 3.74362 183.428 4.2174C183.403 4.17291 183.379 4.12852 183.353 4.08425Z" fill="#A47AF9"/>
<path fill-rule="evenodd" clip-rule="evenodd" d="M96.8769 14.1176C96.0195 14.9914 94.94 15.4493 93.8502 15.2805C92.5876 15.085 91.5927 14.092 91.0802 12.7136C90.848 13.0275 90.5552 13.3213 90.2081 13.5753C88.8187 14.592 87.0849 14.586 86.3355 13.5619C85.586 12.5378 86.1048 10.8834 87.4941 9.86667C88.5971 9.05952 89.9172 8.89695 90.7895 9.37665C91.2494 6.47653 93.347 4.39718 95.4845 4.72823C97.5923 5.05469 98.9541 7.60364 98.5705 10.4585C99.3972 10.5468 100.286 11.0757 100.924 11.9472C101.94 13.3366 101.934 15.0704 100.91 15.8198C99.886 16.5693 98.2316 16.0505 97.2149 14.6612C97.0857 14.4846 96.973 14.3025 96.8769 14.1176Z" fill="#A47AF9"/>
<path d="M18.968 70.4607C19.4856 68.3167 22.5352 68.3167 23.0528 70.4607L24.7947 77.6767C24.9796 78.4429 25.5778 79.0411 26.344 79.2261L33.56 80.968C35.7041 81.4856 35.7041 84.5352 33.56 85.0528L26.344 86.7947C25.5778 86.9796 24.9796 87.5778 24.7947 88.344L23.0528 95.56C22.5352 97.7041 19.4856 97.7041 18.968 95.56L17.2261 88.344C17.0411 87.5778 16.4429 86.9796 15.6767 86.7947L8.46073 85.0528C6.31671 84.5352 6.3167 81.4856 8.46073 80.968L15.6767 79.2261C16.4429 79.0411 17.0411 78.4429 17.2261 77.6767L18.968 70.4607Z" fill="#A47AF9"/>
<path d="M240.968 142.461C241.486 140.317 244.535 140.317 245.053 142.461L246.795 149.677C246.98 150.443 247.578 151.041 248.344 151.226L255.56 152.968C257.704 153.486 257.704 156.535 255.56 157.053L248.344 158.795C247.578 158.98 246.98 159.578 246.795 160.344L245.053 167.56C244.535 169.704 241.486 169.704 240.968 167.56L239.226 160.344C239.041 159.578 238.443 158.98 237.677 158.795L230.461 157.053C228.317 156.535 228.317 153.486 230.461 152.968L237.677 151.226C238.443 151.041 239.041 150.443 239.226 149.677L240.968 142.461Z" fill="#A47AF9"/>
<path fill-rule="evenodd" clip-rule="evenodd" d="M49.628 18.9869C52.0354 18.9869 53.9869 17.0354 53.9869 14.628C53.9869 12.2207 52.0354 10.2692 49.628 10.2692C47.2207 10.2692 45.2692 12.2207 45.2692 14.628C45.2692 17.0354 47.2207 18.9869 49.628 18.9869ZM49.628 22.2561C53.8409 22.2561 57.2561 18.8409 57.2561 14.628C57.2561 10.4152 53.8409 7 49.628 7C45.4152 7 42 10.4152 42 14.628C42 18.8409 45.4152 22.2561 49.628 22.2561Z" fill="#A47AF9"/>
<path d="M32.0142 131.053C31.6812 129.746 32.8869 128.57 34.1845 128.934L42.943 131.396C44.2406 131.76 44.6568 133.393 43.6922 134.334L37.1815 140.689C36.2169 141.63 34.595 141.174 34.262 139.868L32.0142 131.053Z" fill="#A47AF9"/>
<path d="M258.714 101.018C260.02 100.687 261.195 101.894 260.829 103.191L258.357 111.947C257.99 113.244 256.357 113.658 255.417 112.692L249.071 106.173C248.131 105.207 248.589 103.586 249.895 103.255L258.714 101.018Z" fill="#A47AF9"/>
<path fill-rule="evenodd" clip-rule="evenodd" d="M230.128 9.62976C232.062 9.62976 233.63 8.06198 233.63 6.12803C233.63 4.19408 232.062 2.6263 230.128 2.6263C228.194 2.6263 226.626 4.19408 226.626 6.12803C226.626 8.06198 228.194 9.62976 230.128 9.62976ZM230.128 12.2561C233.512 12.2561 236.256 9.51244 236.256 6.12803C236.256 2.74361 233.512 0 230.128 0C226.744 0 224 2.74361 224 6.12803C224 9.51244 226.744 12.2561 230.128 12.2561Z" fill="#A47AF9"/>
<rect x="45" y="58" width="189" height="13" rx="6.5" fill="#BAA9FF"/>
<path d="M93.1244 17.1055C91.4032 23.9907 96.9787 38.4579 105.585 39.6055C121.51 41.7288 118.585 23.1055 109.085 26.6055C97.7789 30.7709 109.093 48.5891 124.585 52.6055" stroke="#A686BF" stroke-linecap="round" stroke-linejoin="round" stroke-dasharray="4 4"/>
<path d="M183.636 15.367C193.1 33.7874 168.025 53.4534 161.083 57.0969" stroke="#A686BF" stroke-linecap="round" stroke-linejoin="round" stroke-dasharray="4 4"/>
<path d="M174.572 209.364C186.115 209.364 195.472 200.007 195.472 188.464C195.472 176.922 186.115 167.564 174.572 167.564C163.029 167.564 153.672 176.922 153.672 188.464C153.672 200.007 163.029 209.364 174.572 209.364Z" fill="#A172FF"/>
<path d="M174.5 199C180.299 199 185 194.299 185 188.5C185 182.701 180.299 178 174.5 178C168.701 178 164 182.701 164 188.5C164 194.299 168.701 199 174.5 199Z" fill="#E3E3E3"/>
<defs>
<linearGradient id="paint0_linear_6180_237" x1="50.7989" y1="82.138" x2="229.552" y2="84.2744" gradientUnits="userSpaceOnUse">
<stop stop-color="#AFF1FF"/>
<stop offset="1" stop-color="#65C8DE"/>
</linearGradient>
<linearGradient id="paint1_linear_6180_237" x1="-0.360303" y1="41.7729" x2="16.9806" y2="41.832" gradientUnits="userSpaceOnUse">
<stop stop-color="#D1DDFF"/>
<stop offset="1" stop-color="#8950FC"/>
</linearGradient>
<linearGradient id="paint2_linear_6180_237" x1="-0.360303" y1="41.7729" x2="16.9806" y2="41.832" gradientUnits="userSpaceOnUse">
<stop stop-color="#D1DDFF"/>
<stop offset="1" stop-color="#8950FC"/>
</linearGradient>
<linearGradient id="paint3_linear_6180_237" x1="-0.360303" y1="41.7729" x2="16.9806" y2="41.832" gradientUnits="userSpaceOnUse">
<stop stop-color="#D1DDFF"/>
<stop offset="1" stop-color="#8950FC"/>
</linearGradient>
<linearGradient id="paint4_linear_6180_237" x1="-0.360303" y1="41.7729" x2="16.9806" y2="41.832" gradientUnits="userSpaceOnUse">
<stop stop-color="#D1DDFF"/>
<stop offset="1" stop-color="#8950FC"/>
</linearGradient>
</defs>
</svg>
